# xmcd
#
# Track frame offsets: 
#        150
#        14479
#        27464
#        45887
#        60394
#        71993
#        86203
#        102979
#        117939
#        130165
#
# Disc length: 1925 seconds
#
# Revision: 1
# Processed by: cddbd v1.5.2PL0 Copyright (c) Steve Scherf et al.
# Submitted via: ExactAudioCopyFreeDBPlugin 1.0
#
DISCID=8607830a
DTITLE=Johnny Cash - Gone Girl
DYEAR=1978
DGENRE=Country
TTITLE0=Gone Girl
TTITLE1=I Will Rock And Roll With You
TTITLE2=The Diplomat
TTITLE3=No Expectations
TTITLE4=It Comes And Goes
TTITLE5=It'll Be Her
TTITLE6=The Gambler
TTITLE7=Cajun Born
TTITLE8=You And Me (with June Carter)
TTITLE9=A Song For The Life
EXTD=(c)1978 Columbia Records\r\n
EXTT0=
EXTT1=
EXTT2=
EXTT3=
EXTT4=
EXTT5=
EXTT6=
EXTT7=
EXTT8=
EXTT9=
PLAYORDER=
